<svg viewBox="0 0 1024 1024" version="1.1" xmlns="http://www.w3.org/2000/svg" width="1em" height="1em" class="YezB4kyJ _1ttmS_58 Fi7Tndm3" role="img" alt="" aria-label="" fill="#222222" aria-hidden="true"><title>5-Star Rated</title><path d="M848.7 133.8c62.1 0 112.5 52.1 112.4 116.3l0 481c0 64.2-50.4 116.3-112.4 116.3l-212.5 0c-8.9 0-17.5 3.6-23.6 10.1l-86.8 90.5-0.8 0.8c-13 12.6-33.7 12.3-46.4-0.6l-88.5-90.9c-6.2-6.3-14.6-9.9-23.4-9.9l-191.4 0c-59.3 0-107.9-47.4-112.1-107.6l-0.3-8.7 0-481c0-64.2 50.4-116.3 112.4-116.3z m-329.7 178.4c-10-3.4-20.8 2.1-24.1 12.4l-34.2 106.1-108.2 0.8c-6 0-11.7 3-15.2 8-6.3 8.8-4.5 21.1 4 27.6l87.1 66.4-32.7 106.6c-1.8 5.9-0.8 12.4 2.7 17.4 6.1 8.9 18.1 10.9 26.6 4.6l88-65.1 88 65.1c4.9 3.6 11.1 4.6 16.8 2.7 10-3.3 15.6-14.4 12.4-24.7l-32.6-106.6 87-66.4c4.8-3.7 7.7-9.5 7.8-15.7 0.1-10.9-8.4-19.8-19-19.9l-108.1-0.8-34.2-106.1c-1.9-5.9-6.4-10.5-12.1-12.4z"/></svg>