<svg viewBox="0 0 1024 1024" version="1.1" xmlns="http://www.w3.org/2000/svg" width="1em" height="1em" class="YezB4kyJ _1ttmS_58 Fi7Tndm3" role="img" alt="" aria-label="" fill="#222222" aria-hidden="true"><title>Black Friday</title><path d="M779 45.5c65.5 0 120.2 50.2 126.2 115.7l61.4 678.6c3.2 35.6-8.6 70.9-32.6 97.3-24 26.4-58 41.4-93.6 41.4l-656.8 0c-35.6 0-69.5-15-93.6-41.4-24-26.4-35.8-61.7-32.6-97.3l61.4-678.6c5.9-65.5 60.6-115.7 126.2-115.7l534 0z m-378.6 429.6l-151.7 0 0 351.5 77.6 0 0-156.2 64.6 0 0-54.3-64.6 0 0-88.5 74.1 0 0-52.5z m133.1 0l-96.7 0 0 351.5 77.6 0 0-157.5 22.1 0 38.6 157.5 80.2 0-48.2-170.1c11.6-5.5 20.4-12.4 26.7-20.6 6.2-8.2 10.5-18 12.8-29.3 2.3-11.3 3.5-24.2 3.5-38.6 0-24.6-4.8-43.6-14.6-57.1-9.7-13.5-23.2-22.8-40.5-28-17.3-5.2-37.9-7.8-61.5-7.8z m241.4 0l-77.6 0 0 351.5 77.6 0 0-351.5z m-235.4 52.1c14.7 0 24.9 4.2 30.4 12.6 5.5 8.4 8.2 20.1 8.2 35.1 0 10.4-1.2 19.3-3.7 26.7-2.5 7.4-6.7 13-12.8 16.9-6.1 3.9-14.6 5.9-25.5 5.9l-21.7 0 0-97.2 25.1 0z m153.3-365.5l-6.7 0.5c-11.2 2.1-20.4 10-24.2 20.6-22.5 63.5-82.5 106-149.9 106-67.4 0-127.4-42.5-149.9-106-3.8-10.7-13-18.6-24.2-20.6-11.2-2.1-22.6 2-29.9 10.6-7.4 8.6-9.6 20.6-5.9 31.2 31.5 89 115.5 148.4 209.9 148.5 94.3 0 178.4-59.5 209.9-148.5 3.8-10.7 1.6-22.6-5.9-31.2-4.4-5.2-10.3-8.7-16.7-10.3l-6.5-0.8z"/></svg>