<svg class="_8qsphw1- _2q3yEOJT" alt="" aria-label="" xmlns="http://www.w3.org/2000/svg" version="1.1" viewBox="0 0 1024 1024" width="1em" height="1em" role="img" fill="#222222"><path d="M426.7 917.3c35.3 0 64-28.7 64-64 0-35.3-28.7-64-64-64-35.3 0-64 28.7-64 64 0 35.3 28.7 64 64 64z m341.3 0c35.3 0 64-28.7 64-64 0-35.3-28.7-64-64-64-35.3 0-64 28.7-64 64 0 35.3 28.7 64 64 64z m-576-789.3c14.8 0 31.8 3 50.1 11.9 26.2 12.7 47.2 34.6 59 64.5l2.9 8.3c3.4 9.3 5.6 19.3 7.8 34.7l1.1 8.6 530.9 0c56.6 0 102.8 44.1 106.4 99.7l0.2 7.1c0 5-0.4 9.9-1.1 14.8l-6.8 47.5-34.4 186.6c-9.8 62.9-61.2 110.2-123.3 113.9l-7.8 0.2-366.7 0c-65.3 0-120.6-48.3-131-113.7l-42.5-271.1-2-15.1-1.7-14.7-4-36.9-1.5-12.2-1.4-9.5-1.4-7c-0.5-2-0.9-3.6-1.3-4.9-6.3-19.5-17-26.1-28.2-27.2l-3.3-0.1-85.3 0c-23.6 0-42.7-19.1-42.7-42.7 0-21.9 16.5-39.9 37.7-42.4l5-0.3 85.3 0z m651.8 213.3l-520.6 0 40.4 257.5c3.6 22.4 20.8 39 41.5 41.4l5.2 0.3 366.7 0c23 0 43-17.5 47-43.1l35.2-192 5.6-39.8c0.1-1 0.2-2 0.3-2.9 0-10.5-7.5-19.2-17.5-21l-3.8-0.4z"/></svg>