<svg viewBox="0 0 1024 1024" version="1.1" xmlns="http://www.w3.org/2000/svg" width="1em" height="1em" class="YezB4kyJ _1ttmS_58 Fi7Tndm3" role="img" alt="" aria-label="" aria-hidden="true"><title>Recommended</title><path d="M781.4 134.7c18.9 0 36.5 9.9 46.2 26.2l161.7 269.6c13.1 21.8 9.1 49.8-9.4 67.2l-431.1 402.4c-20.7 19.3-52.8 19.3-73.6 0l-431.1-402.4c-18.6-17.3-22.5-45.3-9.4-67.2l161.7-269.6c9.7-16.2 27.3-26.2 46.2-26.2l538.8 0z m-152.8 199.9l-233.2 0c-27.6 0-50 22.4-50 50 0 27.6 22.4 50 50 50l233.2 0c27.6 0 50-22.4 50-50 0-27.6-22.4-50-50-50z"/></svg>