<svg class="_8qsphw1- _2q3yEOJT" alt="" aria-label="" xmlns="http://www.w3.org/2000/svg" version="1.1" viewBox="0 0 1024 1024" width="1em" height="1em" role="img" fill="#222222"><path d="M512 107.4c212.1 0 384 171.9 384 384 0 212.1-171.9 384-384 384-31.4 0-62.4-3.8-92.4-11.2l11.8 2.6-82.6 25c-38.6 11.7-79.2-8.5-93.7-45.3l-2.1-6c-2.3-7.6-3.4-15.4-3.3-23.3l0.7-44.8-3.8-3.5c-71.8-68.7-114.9-162.8-118.4-264.3l-0.2-13.2c0-212.1 171.9-384 384-384z m0 85.3c-164.9 0-298.7 133.7-298.7 298.7 0 89.7 39.8 172.9 107.4 229.3 9.9 8.2 15.5 20.5 15.3 33.3l-0.8 52.7 82.3-24.8c5.5-1.7 11.3-2.2 17-1.6l5.6 1c23.3 5.8 47.4 8.7 71.9 8.7 164.9 0 298.7-133.7 298.7-298.6 0-164.9-133.7-298.7-298.7-298.7z m-81.7 343.5c12.1 33.6 44 56.5 80.3 56.5 34 0 64.2-20 77.8-50.2l2.5-6.1c8-22.2 32.5-33.6 54.6-25.6 22.2 8 33.6 32.5 25.7 54.6-24.2 67.1-88.1 112.7-160.6 112.6-72.6 0-136.5-45.8-160.7-113-8-22.2 3.6-46.6 25.8-54.5 22.2-8 46.6 3.6 54.6 25.7z"/></svg>